<?xml version="1.0" encoding="UTF-8"?>
<svg id="Layer_2" data-name="Layer 2" xmlns="http://www.w3.org/2000/svg" viewBox="0 0 312.26 454.36">
  <defs>
    <style>
      .cls-1 {
        fill: #fff;
      }

      .cls-2 {
        fill: #b92025;
      }

      .cls-3 {
        fill: #761213;
      }

      .cls-4 {
        fill: #b32025;
      }
    </style>
  </defs>
  <path class="cls-2" d="M80.69,290.68c-5.73-4.29-11.46-8.59-17.19-12.88-2.43-1.82-6.24-4.38-8.13-6.95-.27-.37-.52-.74-.76-1.13-.11-.18-.39-.31-.19-.58.13-.18.27-.36.4-.54.54-.71,1.07-1.43,1.61-2.14l1.61-2.14c.27-.36.54-.71.8-1.07.13-.18.27-.36.4-.54.14-.19.42.2.52.27,5.73,4.29,11.46,8.59,17.19,12.88,2.86,2.15,5.73,4.29,8.59,6.44.18.13.36.27.54.4.09.07.18.13.27.2.11.08.04.16-.02.24-.27.36-.54.72-.81,1.07-.54.72-1.07,1.43-1.61,2.15-1.07,1.43-2.15,2.86-3.22,4.3Z"/>
  <g>
    <path class="cls-4" d="M198.77,410.78c-11.19,16.43-31.06,24.66-50.59,20.95-8.13-1.54-14.87-4.78-21.44-9.71-3.03-2.27-6.07-4.55-9.1-6.82-6.07-4.55-12.13-9.1-18.2-13.64-15.45-11.58-30.89-23.16-46.34-34.74-1.57-1.18-3.14-2.35-4.71-3.53-3.81-2.86-7.29-5.92-10.3-9.66-8.01-9.96-11.9-22.6-10.87-35.34.42-5.15,1.56-9.95,3.5-14.73.45-1.12.95-2.22,1.48-3.3.26-.53.53-1.06.81-1.58.14-.26.28-.52.42-.77.07-.13.14-.25.22-.38.1-.18.21.03.3.11,1.51,1.43,3.1,2.74,4.76,3.98,2.61,1.96,5.22,3.92,7.84,5.87s5.22,3.92,7.83,5.87c1.31.98,2.61,1.96,3.92,2.94.65.49,1.31.98,1.96,1.47.33.25.65.49.98.73.08.06.2.07.17.21-.02.09-.04.19-.06.28-.04.19-.08.38-.11.57-.85,4.88.61,9.88,3.95,13.55,1.64,1.79,3.63,3.07,5.53,4.49,1.93,1.45,3.86,2.89,5.79,4.34,7.72,5.79,15.43,11.57,23.15,17.36,15.45,11.58,30.89,23.16,46.34,34.74,3.13,2.35,5.13,3.87,9.21,4.47,3.48.51,7.03-.14,10.1-1.85.22-.12.93.55,1.04.64.35.26.69.52,1.04.78.69.52,1.39,1.04,2.08,1.56,2.37,1.78,4.76,3.5,7.37,4.94,7,3.88,13.96,5.85,21.95,6.21Z"/>
    <path class="cls-4" d="M207.43,69.59c4.07,1.78,7.22,5.17,8.7,9.36.73,2.09.91,4.16.91,6.33v22.84c0,.27.12.52-.08.79-.16.22-.33.44-.49.65-.33.43-.65.87-.98,1.31-1.31,1.74-2.61,3.48-3.91,5.22-1.31,1.74-2.61,3.48-3.91,5.22-.08.11-.23.16-.23.33v209.44c0,.07-.08.14,0,.2.11.08.22.16.33.24.44.33.87.65,1.31.98.87.65,1.74,1.3,2.61,1.96,3.48,2.61,6.96,5.22,10.44,7.83,3.48,2.61,6.96,5.22,10.44,7.83,3.89,2.92,6.53,4.93,11.79,4.99,4.37.06,8.58-1.68,11.64-4.8,3.3-3.37,4.57-7.33,4.57-11.92V102.69c0-4.49.33-7.5-2.03-11.73-1.04-1.85-2.31-3.36-3.97-4.69-.78-.63-1.6-1.17-2.49-1.64-.21-.11-.43-.22-.65-.33-.11-.05-.22-.1-.33-.15-.26-.11-.14-.32-.14-.51-.01-1.03-.06-2.06-.13-3.09-.63-8.52-3.44-16.74-8.16-23.86-.96-1.45-1.99-2.85-3.1-4.19-.55-.66-1.11-1.31-1.69-1.95-.29-.32-.58-.63-.88-.94-.06-.06-.27-.17-.12-.19.1-.02.21-.03.31-.05.21-.03.42-.06.62-.09,3.43-.47,6.81-.58,10.26-.33,7.24.51,13.64,2.36,20.04,5.78,12.38,6.62,21.4,18.14,24.86,31.75.85,3.36,1.35,6.72,1.49,10.19.08,2.01.04,4.02.04,6.03v233.85c0,3.1-.03,6.17-.45,9.25-.68,5.06-2.06,9.75-4.21,14.38-8.69,18.67-27.95,30.1-48.5,28.77-6.42-.41-12.23-1.91-18.05-4.65-3.89-1.83-7.33-4.21-10.74-6.77-3.15-2.36-6.31-4.73-9.46-7.09-6.31-4.73-12.61-9.46-18.92-14.18-12.61-9.46-25.23-18.91-37.84-28.37-25.23-18.91-50.46-37.83-75.68-56.74-10.37-7.77-20.74-15.55-31.11-23.32-2.59-1.94-5.18-3.89-7.78-5.83-2.37-1.78-4.72-3.56-6.87-5.63-3.65-3.52-6.6-7.37-9.06-11.81-5.16-9.33-7.19-20.06-5.81-30.63,1.23-9.42,4.71-17.01,10.34-24.53,15.55-20.74,31.1-41.48,46.64-62.22,12.41-16.56,24.83-33.11,37.24-49.67,3.1-4.14,6.21-8.28,9.31-12.42,1.99-2.66,3.9-5.38,6.07-7.91,5.31-6.17,12.03-10.95,19.61-13.92,32.7-12.84,68.08,11.19,68.19,46.32ZM173.5,166.88c-16.67,22.24-33.34,44.47-50.01,66.71-4.17,5.56-8.34,11.12-12.5,16.68l-3.13,4.17c-.26.35-.52.69-.78,1.04-.06.09-.13.17-.19.26-.08.11,0,.16.08.22.17.13.35.26.52.39.69.52,1.39,1.04,2.08,1.56,2.78,2.08,5.56,4.17,8.34,6.25,11.12,8.34,22.24,16.67,33.35,25.01,5.56,4.17,11.12,8.33,16.68,12.5,1.39,1.04,2.78,2.08,4.17,3.13.35.26.69.52,1.04.78.09.07.17.13.26.2.03.02.08.06.08,0v-138.9ZM79.65,235.49c23.12-30.84,46.24-61.69,69.37-92.53,5.78-7.71,11.56-15.42,17.34-23.13,1.44-1.93,2.89-3.86,4.34-5.78.72-.96,1.44-1.93,2.17-2.89l.54-.72c.22-.3.09-.58.09-.87v-37.9c0-2.38-.05-4.68-.83-7-3.32-9.88-15.05-14-23.82-8.37-2.07,1.33-3.56,3.08-5.01,5-1.45,1.93-2.9,3.86-4.34,5.79-2.9,3.86-5.79,7.73-8.69,11.59-5.79,7.73-11.58,15.45-17.38,23.18-11.56,15.42-23.12,30.84-34.68,46.26-5.8,7.74-11.6,15.48-17.41,23.22-2.9,3.87-5.8,7.74-8.7,11.61-1.45,1.93-2.9,3.87-4.35,5.8-1.41,1.87-2.82,3.68-3.68,5.92-1.82,4.72-1.29,10.03,1.42,14.3,1.28,2.03,2.95,3.51,4.83,4.93,1.92,1.44,3.84,2.88,5.76,4.32,7.68,5.76,15.36,11.52,23.04,17.28Z"/>
  </g>
  <path class="cls-2" d="M208.93,374.81c-3.57,2.02-7.77,2.6-11.76,1.61-4.23-1.05-7.1-3.74-10.35-6.18-3.24-2.43-6.48-4.86-9.73-7.29-.81-.61-1.62-1.21-2.43-1.82-.2-.15-.41-.3-.61-.46-.1-.08-.2-.15-.3-.23-.1-.07-.26-.07-.26-.25v-11.78c0-.05-.06-.21.02-.15.05.04.1.08.15.11.4.3.81.61,1.22.91l4.86,3.65c3.24,2.43,6.48,4.86,9.73,7.29,6.48,4.86,12.97,9.72,19.45,14.58Z"/>
  <g>
    <path class="cls-3" d="M52.68,257.68c-1.46,6.2.89,12.67,5.98,16.49,4.95,3.71,9.9,7.42,14.85,11.13,9.9,7.42,19.8,14.84,29.7,22.27,19.8,14.84,39.6,29.69,59.4,44.53,8.77,6.58,17.54,13.15,26.32,19.73,2.18,1.63,4.24,3.29,6.91,4.2,2.8.96,5.39,1.13,8.3.56,1.35-.27,2.61-.69,3.85-1.29.29-.14.58-.29.87-.45.17-.1.74.46.82.53.55.41,1.1.82,1.65,1.23,1.1.83,2.2,1.65,3.31,2.48,3.39,2.54,6.97,4.57,10.89,6.19,3.89,1.61,7.83,2.68,12,3.28,1.04.15,2.08.26,3.13.34.52.04,1.05.07,1.57.1.12,0,0,.12-.04.18-.05.07-.1.14-.15.22-.1.14-.2.29-.3.43-.82,1.15-1.69,2.27-2.6,3.35-3.83,4.52-8.13,8.1-13.27,11.05-10.04,5.76-21.77,7.84-33.18,5.91-5.7-.97-10.86-2.78-15.91-5.58-3.32-1.85-6.29-4.14-9.31-6.4-4.09-3.07-8.18-6.13-12.27-9.2-8.18-6.13-16.36-12.26-24.53-18.39-19.8-14.84-39.6-29.69-59.41-44.53-6.91-5.18-13.82-10.36-20.73-15.54-3.45-2.59-6.91-5.18-10.37-7.77-4.01-3.01-7.56-6.03-10.74-9.96-4.48-5.55-7.47-11.4-9.34-18.29-3.04-11.2-2.1-23.09,2.69-33.67.54-1.21,1.14-2.38,1.77-3.54.08-.14.16-.28.24-.43.05-.09.11-.46.26-.32.24.23.48.46.73.68.48.44.98.88,1.48,1.3,1.19,1.01,2.44,1.94,3.68,2.88,1.45,1.09,2.9,2.18,4.35,3.26,5.8,4.35,11.61,8.7,17.42,13.06Z"/>
    <path class="cls-3" d="M173.5,94.3c-22.09,29.47-44.19,58.94-66.28,88.41-11.05,14.74-22.09,29.47-33.14,44.21-.69.92-1.39,1.85-2.08,2.77-.1.13-.27-.15-.34-.2-.11-.09-.23-.17-.35-.26-.23-.17-.46-.35-.69-.52-.46-.35-.93-.69-1.39-1.04-1.85-1.39-3.7-2.77-5.55-4.16-3.7-2.77-7.4-5.55-11.1-8.32-1.79-1.34-3.63-2.57-5.13-4.3-.37-.43-.72-.88-1.05-1.35-.17-.24-.32-.48-.48-.73-.08-.12-.15-.25-.23-.38-.09-.16,0-.25.09-.36.69-.92,1.39-1.85,2.08-2.77,2.77-3.7,5.55-7.4,8.32-11.1,22.09-29.47,44.19-58.94,66.28-88.41,11.05-14.74,22.09-29.47,33.14-44.21,1.38-1.84,2.77-3.69,4.15-5.53.34-.46.69-.92,1.04-1.38.16-.21.21-.54.6-.45.27.07.53.14.79.22,1.07.33,2.07.75,3.05,1.29,4.17,2.3,7.1,6.35,7.99,11.03.43,2.27.28,4.51.28,6.78v20.75Z"/>
    <path class="cls-3" d="M207.43,69.59c-.03-9.45-2.74-18.68-7.81-26.65-1.31-2.06-2.75-4-4.35-5.85-.4-.46-.8-.91-1.21-1.35-.21-.22-.41-.44-.62-.66-.05-.05-.28-.13-.14-.16.05,0,.09-.01.14-.02.09-.01.19-.03.28-.04.76-.11,1.52-.21,2.29-.29,3.14-.32,6.25-.34,9.39-.06,12.71,1.12,24.51,7.05,32.98,16.59,8.12,9.15,12.59,20.94,12.59,33.17v269.49c0,.07-.26.12-.29.14-.84.35-1.7.62-2.59.82-3.68.83-7.53.33-10.88-1.4-1.62-.84-7.45-5.31-8.88-6.38-2.94-2.2-5.88-4.41-8.82-6.62-.74-.55-1.47-1.1-2.21-1.65-.09-.07-.26-.04-.26-.22V87.78c0-4.12.26-6.8-1.71-10.72-1.68-3.33-4.47-5.97-7.89-7.47Z"/>
  </g>
  <path class="cls-1" d="M196.63,24.88c9.87-.73,19.77,1.01,28.8,5.07,4.53,2.04,8.66,4.54,12.55,7.62.47.37.94.75,1.4,1.14.23.19.46.39.68.58.14.12,1.16.02,1.29.02,1.9-.1,3.79-.11,5.69-.04,3.89.16,7.68.69,11.47,1.6,15.16,3.65,28.29,13.1,36.55,26.33,4.25,6.81,6.9,13.78,8.23,21.7.85,5.04.82,10.05.82,15.11v233.33c0,6.2-.53,11.86-2.22,17.88-4.5,16.01-15.49,29.41-30.32,36.96-4.24,2.16-8.59,3.76-13.22,4.86-2.19.52-4.39.91-6.62,1.19-1.08.13-2.17.23-3.25.3-.27.02-.54.03-.8.05-.24.01-.47-.09-.67.15-.24.29-.49.59-.73.87-4.14,4.84-8.76,8.78-14.2,12.1-5.51,3.37-11.2,5.7-17.49,7.17-3.03.71-6.07,1.17-9.17,1.4-.38.03-.76.05-1.14.07-.19.01-.38.02-.57.03-.21,0-.26.17-.36.29-.41.49-.82.98-1.25,1.46-.86.97-1.76,1.92-2.68,2.84-16.68,16.53-41.5,21.71-63.4,13.24-5.37-2.08-10.18-4.85-14.77-8.3-1.94-1.45-3.87-2.9-5.81-4.36-3.87-2.9-7.75-5.81-11.62-8.71-7.75-5.81-15.5-11.62-23.25-17.43-7.75-5.81-15.5-11.62-23.25-17.43-3.87-2.9-7.75-5.81-11.62-8.71-3.11-2.33-6.26-4.59-9.13-7.24-6.68-6.18-11.84-13.79-15.12-22.28-4.23-10.96-5.12-22.92-2.56-34.39.6-2.69,1.38-5.3,2.34-7.88.23-.63.48-1.25.73-1.87.06-.15.13-.31.19-.46.11-.25-.14-.31-.25-.45-.24-.3-.48-.6-.71-.9-.95-1.22-1.84-2.48-2.69-3.77-3.59-5.47-6.12-11.15-7.79-17.48-3.3-12.52-2.44-25.77,2.47-37.76.07-.18.14-.35.22-.53.1-.24-.07-.33-.19-.48-.25-.31-.49-.62-.73-.93-.49-.63-.96-1.27-1.43-1.92-.94-1.32-1.83-2.68-2.66-4.08-1.72-2.9-3.18-5.88-4.39-9.03C1.42,215.18.13,208.59,0,201.46c-.17-9.63,2-19.16,6.32-27.77,2.3-4.58,5.29-8.62,8.33-12.69,3.04-4.05,6.07-8.1,9.11-12.15,6.07-8.1,12.15-16.21,18.22-24.31,12.15-16.2,24.3-32.41,36.45-48.61,7.87-10.49,15.73-20.98,23.6-31.48,1.97-2.62,3.93-5.25,5.9-7.87,1.91-2.54,3.8-5.08,5.98-7.41,4.27-4.58,8.96-8.27,14.42-11.34,21.96-12.33,49.31-9.51,68.29,7.04ZM191.1,419.6c-8.04-1.36-15.1-4.07-21.98-8.44-3.36-2.14-6.46-4.62-9.63-7-4.84-3.63-9.67-7.25-14.51-10.87-14.34-10.75-28.67-21.49-43-32.24-14.34-10.75-28.67-21.49-43-32.24-5.06-3.8-10.13-7.59-15.19-11.39-2.53-1.9-5.06-3.8-7.6-5.69-1.41-1.06-2.83-2.1-4.23-3.18-.58-.45-1.16-.91-1.72-1.38-.14-.12-.28-.24-.42-.36-.07-.06-.14-.12-.21-.18-.14-.11-.08.16-.11.24-.13.39-.25.78-.37,1.18-.48,1.6-.87,3.22-1.19,4.87-.66,3.43-.95,6.84-.88,10.34.23,12.24,4.95,23.96,13.25,32.94,4.01,4.34,8.77,7.6,13.42,11.09,14.33,10.75,28.67,21.49,43,32.24,6.09,4.57,12.19,9.14,18.28,13.71,3.05,2.28,6.1,4.57,9.14,6.85,1.94,1.45,3.84,2.95,5.87,4.28,3.44,2.26,7.02,4.04,10.9,5.4,17.33,6.09,36.58,2.18,50.17-10.18ZM234.64,397.83c-7.78-1.32-14.65-3.91-21.37-8.05-2.87-1.77-5.51-3.83-8.2-5.85l-9.87-7.4c-6.58-4.93-13.16-9.87-19.75-14.8-18.69-14.01-37.38-28.02-56.07-42.03-18.69-14.01-37.38-28.02-56.07-42.03-7.27-5.45-14.54-10.9-21.81-16.35-3.64-2.73-7.27-5.45-10.91-8.18-1.82-1.36-3.64-2.73-5.45-4.09-.5-.37-.99-.74-1.49-1.12-.84-.64-1.67-1.3-2.48-1.98-.1-.09-.2-.17-.3-.26-.08-.07-.06.09-.08.15-.02.07-.04.13-.06.2-.09.26-.17.53-.25.79-.16.54-.32,1.07-.46,1.61-1.22,4.57-1.78,9.09-1.69,13.81.19,10.52,3.69,20.7,10.02,29.11,2.93,3.89,6.26,7.17,10.15,10.09,1.31.98,2.61,1.96,3.91,2.94,5.22,3.91,10.44,7.83,15.66,11.74,18.69,14.01,37.38,28.02,56.07,42.03,18.69,14.01,37.38,28.02,56.07,42.03,9.51,7.13,19.94,10.89,31.96,10.61,12.04-.28,23.56-4.88,32.47-12.99ZM163.89,179.69v-56.57l-78.48,104.68,27.15,20.35,51.33-68.47ZM163.89,195.7l-43.64,58.22,43.64,32.72v-90.94ZM77.73,222.05c19.89-26.53,39.78-53.06,59.66-79.59,4.97-6.63,9.94-13.26,14.92-19.9,2.49-3.32,4.97-6.63,7.46-9.95,1.24-1.66,2.49-3.32,3.73-4.97.15-.2.39-.32.39-.65v-33.09c0-1.44.04-2.88,0-4.32-.02-.61-.11-1.19-.3-1.77-.77-2.41-2.88-4.14-5.39-4.42-1.33-.15-2.46.06-3.65.68-1.55.8-2.37,2.1-3.34,3.4-19.89,26.53-39.78,53.06-59.66,79.59-9.94,13.26-19.89,26.53-29.83,39.79-1.62,2.16-3.24,4.32-4.86,6.48-.81,1.08-1.62,2.16-2.43,3.24-.31.41-.56.84-.76,1.32-.9,2.09-.61,4.51.74,6.34,1.06,1.43,2.53,2.23,3.88,3.24,2.16,1.62,4.32,3.24,6.48,4.86,4.32,3.24,8.64,6.48,12.97,9.72ZM249.03,49.03c4.48,6.1,7.54,12.48,9.5,19.79.96,3.58,1.58,7.18,1.86,10.88.2,2.53.18,5.07.18,7.6v250.06c0,3.4-.08,5.62-1.62,8.79-1.43,2.93-3.32,4.99-6.11,6.67-5.32,3.21-12.02,3.05-17.19-.41-1.25-.84-2.41-1.78-3.62-2.68-1.21-.91-2.42-1.82-3.63-2.72-2.42-1.82-4.84-3.63-7.27-5.45-4.84-3.63-9.69-7.26-14.53-10.89-19.38-14.53-38.75-29.05-58.13-43.58-19.38-14.53-38.75-29.05-58.13-43.58-9.69-7.26-19.38-14.53-29.06-21.79-2.42-1.82-4.84-3.63-7.27-5.45-2.36-1.77-4.84-3.3-6.78-5.63-4.08-4.91-4.85-11.78-1.96-17.47.9-1.78,3.96-5.68,5.13-7.24,1.82-2.43,3.64-4.85,5.45-7.28,3.64-4.85,7.27-9.7,10.91-14.55,7.27-9.7,14.55-19.4,21.82-29.1,14.54-19.4,29.09-38.8,43.63-58.21,3.64-4.85,7.27-9.7,10.91-14.55,2.05-2.74,3.21-4.5,6.3-6.31,2.86-1.67,5.62-2.34,8.93-2.16,6.22.33,11.67,4.24,13.99,10.02,1.33,3.31,1.15,5.43,1.15,8.84v220.99c0,.22.12.32.27.43.3.23.61.45.91.68,1.21.91,2.42,1.82,3.64,2.73,9.69,7.27,19.39,14.54,29.08,21.8.12.09.04-.14.04-.21V75.08c0-2.87.08-5.74-.11-8.61-.9-13.74-7.43-26.48-18.05-35.24-21.76-17.95-54.05-14.34-71.3,7.99-5.35,6.92-10.49,13.99-15.74,20.98-23.74,31.67-47.48,63.34-71.23,95.01-2.97,3.96-5.93,7.92-8.9,11.88-2.72,3.63-5.39,7.22-7.41,11.34-3.47,7.07-5.21,14.85-5.09,22.73.24,15.77,7.69,29.99,20.25,39.41,3.96,2.97,7.92,5.93,11.88,8.9,15.84,11.87,31.67,23.74,47.5,35.61,28.76,21.56,57.52,43.12,86.28,64.68,7.19,5.39,14.38,10.78,21.57,16.17,3.59,2.7,7.19,5.39,10.78,8.08l5.39,4.04c4.79,3.59,9.3,6.29,15,8.26,28.39,9.8,58.94-7.49,65.15-36.87,1.44-6.82,1.08-13.56,1.08-20.39V102.78c0-3.87.02-7.7-.57-11.55-3.47-22.73-22-40.14-44.9-42.2ZM205.49,34.52c5.02,6.84,8.25,13.96,10.11,22.24.9,4.02,1.37,8.02,1.43,12.14.02,1.05,0,2.11,0,3.16v254.39c0,.09.08.09.13.12.05.04.1.08.15.11.1.08.2.15.31.23.2.15.41.3.61.46.81.61,1.63,1.22,2.44,1.83,6.51,4.88,13.03,9.76,19.54,14.65,1.51,1.13,2.9,1.8,4.88,1.64,1.78-.15,3.03-.77,4.23-2.1,1.11-1.24,1.6-2.48,1.64-4.14.08-3.69,0-7.38,0-11.07V93.67c0-4.29.18-8.57-.12-12.86-.56-8.07-2.73-15.04-6.86-22-8.19-13.82-22.49-22.84-38.49-24.28Z"/>
</svg>